G04 start of page 5 for group 4 idx 6 *
G04 Title: (unknown), signal3 *
G04 Creator: pcb 20110918 *
G04 CreationDate: Sun May 13 20:50:36 2012 UTC *
G04 For: mldelibero *
G04 Format: Gerber/RS-274X *
G04 PCB-Dimensions: 2000000 2000000 *
G04 PCB-Coordinate-Origin: lower left *
%MOIN*%
%FSLAX25Y25*%
%LNGROUP4*%
%ADD59C,0.0450*%
%ADD58C,0.0230*%
%ADD57C,0.1500*%
%ADD56C,0.0350*%
%ADD55C,0.0200*%
%ADD54C,0.1540*%
%ADD53C,0.0360*%
%ADD52C,0.0650*%
%ADD51C,0.0400*%
%ADD50C,0.0600*%
%ADD49C,0.0250*%
%ADD48C,0.0100*%
G54D48*X74100Y1553000D02*X720700D01*
Y1936800D01*
X74100D02*X720700D01*
X74100D02*Y1553000D01*
G54D49*X488159Y1786592D02*X488100Y1786651D01*
G54D50*X209500Y1698300D03*
X183500D03*
Y1708300D03*
X209500D03*
Y1718300D03*
X183500D03*
G54D51*X188500Y1741300D03*
Y1761300D03*
X178500Y1751300D03*
X214500Y1741300D03*
X204500Y1751300D03*
X214500Y1761300D03*
G54D50*X400000Y1922000D03*
X410000D03*
X420000D03*
X430000D03*
Y1952000D03*
X420000D03*
X410000D03*
X400000D03*
X288300Y1927500D03*
X298300D03*
X84700Y1884200D03*
Y1874200D03*
X379500Y1698300D03*
X353500D03*
X453500D03*
X379500Y1708300D03*
X353500D03*
X453500D03*
X379500Y1718300D03*
X353500D03*
X453500D03*
G54D51*X384500Y1741300D03*
Y1761300D03*
X374500Y1751300D03*
X358500Y1741300D03*
Y1761300D03*
X348500Y1751300D03*
X448500D03*
G54D50*X479500Y1698300D03*
Y1708300D03*
Y1718300D03*
G54D51*X484500Y1741300D03*
Y1761300D03*
X474500Y1751300D03*
X458500Y1741300D03*
Y1761300D03*
X628400Y1737500D03*
X654400D03*
X628400Y1757500D03*
X654400D03*
X618400Y1747500D03*
X644400D03*
G54D50*X623400Y1694500D03*
Y1704500D03*
Y1714500D03*
X649400Y1694500D03*
Y1704500D03*
Y1714500D03*
X149500Y1595700D03*
X139500D03*
G54D52*X258500D03*
X268500D03*
X278500D03*
X288500D03*
X298500D03*
X308500D03*
X318500D03*
X328500D03*
X524800D03*
X534800D03*
X544800D03*
X554800D03*
X564800D03*
X574800D03*
X584800D03*
X594800D03*
G54D53*X216700Y1678000D03*
G54D50*X381600Y1684400D03*
G54D53*X289500Y1664300D03*
X485300Y1678700D03*
X472300Y1666400D03*
X559400Y1660500D03*
G54D50*X369400Y1840000D03*
X366500Y1740500D03*
X366700Y1720300D03*
X349100Y1782200D03*
X351900Y1657100D03*
X362300Y1650700D03*
X289500Y1741300D03*
X293100Y1650600D03*
G54D53*X299600Y1828800D03*
Y1874000D03*
X383200Y1904200D03*
X178300Y1673300D03*
G54D50*X196500Y1722600D03*
Y1737100D03*
G54D53*X202500Y1666500D03*
G54D50*X224000Y1650600D03*
G54D53*X176700Y1781200D03*
X232700Y1805200D03*
G54D50*X200200Y1844200D03*
G54D54*X89100Y1921800D03*
Y1568100D03*
G54D53*X407400Y1809500D03*
X472200Y1805200D03*
X506900Y1805400D03*
G54D50*X559400Y1737500D03*
G54D53*X676500Y1796000D03*
X617300Y1778400D03*
G54D50*X636900Y1736000D03*
X637000Y1723600D03*
X466600Y1725200D03*
Y1738100D03*
G54D53*X453500Y1657500D03*
G54D50*X471100Y1647300D03*
G54D53*X623200Y1653900D03*
X642400Y1665100D03*
X655500Y1674200D03*
X636800Y1648800D03*
X566300Y1653400D03*
X447200Y1782300D03*
G54D50*X502500Y1859400D03*
X469300Y1834500D03*
G54D53*X446600Y1904000D03*
G54D50*X674300Y1859000D03*
G54D54*X705600Y1921400D03*
G54D53*X646300Y1821000D03*
G54D54*X705600Y1568100D03*
G54D55*G54D56*G54D55*G54D56*G54D55*G54D56*G54D55*G54D56*G54D55*G54D56*G54D57*G54D55*G54D56*G54D55*G54D56*G54D55*G54D56*G54D55*G54D56*G54D55*G54D56*G54D57*G54D55*G54D57*G54D51*G54D58*G54D51*G54D58*G54D51*G54D58*G54D51*G54D59*M02*
