G04 start of page 2 for group 0 idx 0 *
G04 Title: (unknown), component *
G04 Creator: pcb 20110918 *
G04 CreationDate: Sun May 13 20:50:36 2012 UTC *
G04 For: mldelibero *
G04 Format: Gerber/RS-274X *
G04 PCB-Dimensions: 2000000 2000000 *
G04 PCB-Coordinate-Origin: lower left *
%MOIN*%
%FSLAX25Y25*%
%LNTOP*%
%ADD32C,0.0450*%
%ADD31C,0.0230*%
%ADD30C,0.1500*%
%ADD29C,0.0350*%
%ADD28C,0.1540*%
%ADD27C,0.0360*%
%ADD26R,0.0512X0.0512*%
%ADD25R,0.0300X0.0300*%
%ADD24R,0.0500X0.0500*%
%ADD23R,0.0130X0.0130*%
%ADD22R,0.0340X0.0340*%
%ADD21R,0.0295X0.0295*%
%ADD20C,0.0650*%
%ADD19C,0.0600*%
%ADD18C,0.0500*%
%ADD17C,0.0150*%
%ADD16C,0.0200*%
%ADD15C,0.0300*%
%ADD14C,0.0400*%
%ADD13C,0.0250*%
%ADD12C,0.0001*%
%ADD11C,0.0100*%
G54D11*X74100Y1553000D02*X720700D01*
Y1936800D01*
X74100D02*X720700D01*
X74100D02*Y1553000D01*
G54D12*G36*
X124600Y1936800D02*X176900D01*
Y1861196D01*
X162043Y1861191D01*
X161890Y1861154D01*
X161745Y1861094D01*
X161610Y1861012D01*
X161491Y1860909D01*
X161388Y1860790D01*
X161306Y1860655D01*
X161246Y1860510D01*
X161209Y1860357D01*
X161200Y1860200D01*
X161209Y1855043D01*
X161246Y1854890D01*
X161306Y1854745D01*
X161388Y1854610D01*
X161491Y1854491D01*
X161610Y1854388D01*
X161745Y1854306D01*
X161890Y1854246D01*
X162043Y1854209D01*
X162200Y1854200D01*
X176900Y1854205D01*
Y1814577D01*
X167900D01*
X167789Y1814570D01*
X167677Y1814577D01*
X166759D01*
X166700Y1814582D01*
X166465Y1814563D01*
X166235Y1814508D01*
X166017Y1814418D01*
X165816Y1814294D01*
X165815Y1814294D01*
X165636Y1814141D01*
X165598Y1814096D01*
X160932Y1809430D01*
X160887Y1809392D01*
X160734Y1809212D01*
X160610Y1809011D01*
X160520Y1808793D01*
X160465Y1808563D01*
X160465Y1808563D01*
X160446Y1808328D01*
X160451Y1808269D01*
Y1670659D01*
X160446Y1670600D01*
X160465Y1670365D01*
X160520Y1670135D01*
X160610Y1669917D01*
X160734Y1669716D01*
X160887Y1669536D01*
X160932Y1669498D01*
X176900Y1653530D01*
Y1642599D01*
X153743Y1642591D01*
X153590Y1642554D01*
X153445Y1642494D01*
X153310Y1642412D01*
X153191Y1642309D01*
X153088Y1642190D01*
X153006Y1642055D01*
X152946Y1641910D01*
X152909Y1641757D01*
X152900Y1641600D01*
X152909Y1636443D01*
X152946Y1636290D01*
X153006Y1636145D01*
X153088Y1636010D01*
X153191Y1635891D01*
X153310Y1635788D01*
X153445Y1635706D01*
X153590Y1635646D01*
X153743Y1635609D01*
X153900Y1635600D01*
X163400Y1635603D01*
Y1613843D01*
X149250Y1599693D01*
X148872Y1599663D01*
X148260Y1599516D01*
X147678Y1599275D01*
X147142Y1598946D01*
X146663Y1598537D01*
X146254Y1598058D01*
X145925Y1597522D01*
X145684Y1596940D01*
X145537Y1596328D01*
X145488Y1595700D01*
X145537Y1595072D01*
X145684Y1594460D01*
X145925Y1593878D01*
X146254Y1593342D01*
X146663Y1592863D01*
X147142Y1592454D01*
X147678Y1592125D01*
X148260Y1591884D01*
X148872Y1591737D01*
X149500Y1591688D01*
X150128Y1591737D01*
X150740Y1591884D01*
X151322Y1592125D01*
X151858Y1592454D01*
X152337Y1592863D01*
X152746Y1593342D01*
X153075Y1593878D01*
X153316Y1594460D01*
X153463Y1595072D01*
X153485Y1595442D01*
X168438Y1610396D01*
X168528Y1610472D01*
X168834Y1610831D01*
X168835Y1610831D01*
X169081Y1611234D01*
X169262Y1611670D01*
X169372Y1612129D01*
X169409Y1612600D01*
X169400Y1612718D01*
Y1635606D01*
X176900Y1635608D01*
Y1553100D01*
X124600D01*
Y1635605D01*
X137057Y1635609D01*
X137210Y1635646D01*
X137355Y1635706D01*
X137490Y1635788D01*
X137609Y1635891D01*
X137712Y1636010D01*
X137794Y1636145D01*
X137854Y1636290D01*
X137891Y1636443D01*
X137900Y1636600D01*
X137891Y1641757D01*
X137854Y1641910D01*
X137794Y1642055D01*
X137712Y1642190D01*
X137609Y1642309D01*
X137490Y1642412D01*
X137355Y1642494D01*
X137210Y1642554D01*
X137057Y1642591D01*
X136900Y1642600D01*
X124600Y1642595D01*
Y1843704D01*
X127257Y1843709D01*
X127410Y1843746D01*
X127555Y1843806D01*
X127690Y1843888D01*
X127809Y1843991D01*
X127912Y1844110D01*
X127994Y1844245D01*
X128054Y1844390D01*
X128091Y1844543D01*
X128100Y1844700D01*
X128091Y1869857D01*
X128054Y1870010D01*
X127994Y1870155D01*
X127912Y1870290D01*
X127809Y1870409D01*
X127690Y1870512D01*
X127555Y1870594D01*
X127410Y1870654D01*
X127257Y1870691D01*
X127100Y1870700D01*
X124600Y1870696D01*
Y1885704D01*
X127257Y1885709D01*
X127410Y1885746D01*
X127555Y1885806D01*
X127690Y1885888D01*
X127809Y1885991D01*
X127912Y1886110D01*
X127994Y1886245D01*
X128054Y1886390D01*
X128091Y1886543D01*
X128100Y1886700D01*
X128091Y1911857D01*
X128054Y1912010D01*
X127994Y1912155D01*
X127912Y1912290D01*
X127809Y1912409D01*
X127690Y1912512D01*
X127555Y1912594D01*
X127410Y1912654D01*
X127257Y1912691D01*
X127100Y1912700D01*
X124600Y1912696D01*
Y1936800D01*
G37*
G36*
X89087Y1881850D02*X109412D01*
X109500Y1881843D01*
X109853Y1881871D01*
X109853Y1881871D01*
X110197Y1881954D01*
X110525Y1882089D01*
X110827Y1882274D01*
X111096Y1882504D01*
X111153Y1882571D01*
X121107Y1892525D01*
X121109Y1886543D01*
X121146Y1886390D01*
X121206Y1886245D01*
X121288Y1886110D01*
X121391Y1885991D01*
X121510Y1885888D01*
X121645Y1885806D01*
X121790Y1885746D01*
X121943Y1885709D01*
X122100Y1885700D01*
X124600Y1885704D01*
Y1870696D01*
X121943Y1870691D01*
X121790Y1870654D01*
X121645Y1870594D01*
X121510Y1870512D01*
X121391Y1870409D01*
X121288Y1870290D01*
X121206Y1870155D01*
X121146Y1870010D01*
X121109Y1869857D01*
X121100Y1869700D01*
X121109Y1844543D01*
X121146Y1844390D01*
X121206Y1844245D01*
X121288Y1844110D01*
X121391Y1843991D01*
X121510Y1843888D01*
X121645Y1843806D01*
X121790Y1843746D01*
X121943Y1843709D01*
X122100Y1843700D01*
X124600Y1843704D01*
Y1642595D01*
X111743Y1642591D01*
X111590Y1642554D01*
X111445Y1642494D01*
X111310Y1642412D01*
X111191Y1642309D01*
X111088Y1642190D01*
X111006Y1642055D01*
X110946Y1641910D01*
X110909Y1641757D01*
X110900Y1641600D01*
X110909Y1636443D01*
X110946Y1636290D01*
X111006Y1636145D01*
X111088Y1636010D01*
X111191Y1635891D01*
X111310Y1635788D01*
X111445Y1635706D01*
X111590Y1635646D01*
X111743Y1635609D01*
X111900Y1635600D01*
X124600Y1635605D01*
Y1553100D01*
X89087D01*
Y1559374D01*
X89100Y1559373D01*
X90465Y1559481D01*
X91797Y1559800D01*
X93062Y1560324D01*
X94230Y1561040D01*
X95271Y1561929D01*
X96160Y1562970D01*
X96876Y1564138D01*
X97400Y1565403D01*
X97719Y1566735D01*
X97800Y1568100D01*
X97719Y1569465D01*
X97400Y1570797D01*
X96876Y1572062D01*
X96160Y1573230D01*
X95271Y1574271D01*
X94230Y1575160D01*
X93062Y1575876D01*
X91797Y1576400D01*
X90465Y1576719D01*
X89100Y1576827D01*
X89087Y1576826D01*
Y1881850D01*
G37*
G36*
Y1936800D02*X124600D01*
Y1912696D01*
X121943Y1912691D01*
X121790Y1912654D01*
X121645Y1912594D01*
X121510Y1912512D01*
X121391Y1912409D01*
X121288Y1912290D01*
X121206Y1912155D01*
X121146Y1912010D01*
X121109Y1911857D01*
X121100Y1911700D01*
X121105Y1898887D01*
X108568Y1886350D01*
X89087D01*
Y1913074D01*
X89100Y1913073D01*
X90465Y1913181D01*
X91797Y1913500D01*
X93062Y1914024D01*
X94230Y1914740D01*
X95271Y1915629D01*
X96160Y1916670D01*
X96876Y1917838D01*
X97400Y1919103D01*
X97719Y1920435D01*
X97800Y1921800D01*
X97719Y1923165D01*
X97400Y1924497D01*
X96876Y1925762D01*
X96160Y1926930D01*
X95271Y1927971D01*
X94230Y1928860D01*
X93062Y1929576D01*
X91797Y1930100D01*
X90465Y1930419D01*
X89100Y1930527D01*
X89087Y1930526D01*
Y1936800D01*
G37*
G36*
X74100D02*X89087D01*
Y1930526D01*
X87735Y1930419D01*
X86403Y1930100D01*
X85138Y1929576D01*
X83970Y1928860D01*
X82929Y1927971D01*
X82040Y1926930D01*
X81324Y1925762D01*
X80800Y1924497D01*
X80481Y1923165D01*
X80373Y1921800D01*
X80481Y1920435D01*
X80800Y1919103D01*
X81324Y1917838D01*
X82040Y1916670D01*
X82929Y1915629D01*
X83970Y1914740D01*
X85138Y1914024D01*
X86403Y1913500D01*
X87735Y1913181D01*
X89087Y1913074D01*
Y1886350D01*
X88074D01*
X87946Y1886558D01*
X87537Y1887037D01*
X87058Y1887446D01*
X86522Y1887775D01*
X85940Y1888016D01*
X85328Y1888163D01*
X84700Y1888212D01*
X84072Y1888163D01*
X83460Y1888016D01*
X82878Y1887775D01*
X82342Y1887446D01*
X81863Y1887037D01*
X81454Y1886558D01*
X81125Y1886022D01*
X80884Y1885440D01*
X80737Y1884828D01*
X80688Y1884200D01*
X80737Y1883572D01*
X80884Y1882960D01*
X81125Y1882378D01*
X81454Y1881842D01*
X81863Y1881363D01*
X82342Y1880954D01*
X82878Y1880625D01*
X83460Y1880384D01*
X84072Y1880237D01*
X84700Y1880188D01*
X85328Y1880237D01*
X85940Y1880384D01*
X86522Y1880625D01*
X87058Y1880954D01*
X87537Y1881363D01*
X87946Y1881842D01*
X87951Y1881850D01*
X89087D01*
Y1576826D01*
X87735Y1576719D01*
X86403Y1576400D01*
X85138Y1575876D01*
X83970Y1575160D01*
X82929Y1574271D01*
X82040Y1573230D01*
X81324Y1572062D01*
X80800Y1570797D01*
X80481Y1569465D01*
X80373Y1568100D01*
X80481Y1566735D01*
X80800Y1565403D01*
X81324Y1564138D01*
X82040Y1562970D01*
X82929Y1561929D01*
X83970Y1561040D01*
X85138Y1560324D01*
X86403Y1559800D01*
X87735Y1559481D01*
X89087Y1559374D01*
Y1553100D01*
X74100D01*
Y1936800D01*
G37*
G36*
X315095Y1906462D02*X318400Y1903157D01*
Y1890794D01*
X315095Y1890793D01*
Y1906462D01*
G37*
G36*
Y1936800D02*X398300D01*
Y1925625D01*
X398178Y1925575D01*
X397642Y1925246D01*
X397163Y1924837D01*
X396754Y1924358D01*
X396425Y1923822D01*
X396184Y1923240D01*
X396037Y1922628D01*
X395988Y1922000D01*
X396037Y1921372D01*
X396184Y1920760D01*
X396425Y1920178D01*
X396754Y1919642D01*
X397163Y1919163D01*
X397642Y1918754D01*
X398178Y1918425D01*
X398300Y1918375D01*
Y1897521D01*
X365379Y1864600D01*
X315095D01*
Y1883802D01*
X334057Y1883809D01*
X334210Y1883846D01*
X334355Y1883906D01*
X334490Y1883988D01*
X334609Y1884091D01*
X334712Y1884210D01*
X334794Y1884345D01*
X334854Y1884490D01*
X334891Y1884643D01*
X334900Y1884800D01*
X334891Y1889957D01*
X334854Y1890110D01*
X334794Y1890255D01*
X334712Y1890390D01*
X334609Y1890509D01*
X334490Y1890612D01*
X334355Y1890694D01*
X334210Y1890754D01*
X334057Y1890791D01*
X333900Y1890800D01*
X324400Y1890797D01*
Y1904282D01*
X324409Y1904400D01*
X324372Y1904871D01*
X324262Y1905330D01*
X324081Y1905766D01*
X323835Y1906169D01*
X323528Y1906528D01*
X323438Y1906604D01*
X315095Y1914947D01*
Y1936800D01*
G37*
G36*
X279400D02*X315095D01*
Y1914947D01*
X300421Y1929621D01*
X300069Y1929935D01*
X299666Y1930181D01*
X299230Y1930362D01*
X298771Y1930472D01*
X298300Y1930509D01*
X297829Y1930472D01*
X297370Y1930362D01*
X296934Y1930181D01*
X296531Y1929935D01*
X296172Y1929628D01*
X295865Y1929269D01*
X295619Y1928866D01*
X295438Y1928430D01*
X295328Y1927971D01*
X295291Y1927500D01*
X295328Y1927029D01*
X295438Y1926570D01*
X295619Y1926134D01*
X295865Y1925731D01*
X296179Y1925379D01*
X315095Y1906462D01*
Y1890793D01*
X308743Y1890791D01*
X308590Y1890754D01*
X308445Y1890694D01*
X308310Y1890612D01*
X308191Y1890509D01*
X308088Y1890390D01*
X308006Y1890255D01*
X307946Y1890110D01*
X307909Y1889957D01*
X307900Y1889800D01*
X307909Y1884643D01*
X307946Y1884490D01*
X308006Y1884345D01*
X308088Y1884210D01*
X308191Y1884091D01*
X308310Y1883988D01*
X308445Y1883906D01*
X308590Y1883846D01*
X308743Y1883809D01*
X308900Y1883800D01*
X315095Y1883802D01*
Y1864600D01*
X279400D01*
Y1883805D01*
X292057Y1883809D01*
X292210Y1883846D01*
X292355Y1883906D01*
X292490Y1883988D01*
X292609Y1884091D01*
X292712Y1884210D01*
X292794Y1884345D01*
X292854Y1884490D01*
X292891Y1884643D01*
X292900Y1884800D01*
X292891Y1889957D01*
X292854Y1890110D01*
X292794Y1890255D01*
X292712Y1890390D01*
X292609Y1890509D01*
X292490Y1890612D01*
X292355Y1890694D01*
X292210Y1890754D01*
X292057Y1890791D01*
X291900Y1890800D01*
X282400Y1890797D01*
Y1917357D01*
X288550Y1923507D01*
X288928Y1923537D01*
X289540Y1923684D01*
X290122Y1923925D01*
X290658Y1924254D01*
X291137Y1924663D01*
X291546Y1925142D01*
X291875Y1925678D01*
X292116Y1926260D01*
X292263Y1926872D01*
X292300Y1927500D01*
X292263Y1928128D01*
X292116Y1928740D01*
X291875Y1929322D01*
X291546Y1929858D01*
X291137Y1930337D01*
X290658Y1930746D01*
X290122Y1931075D01*
X289540Y1931316D01*
X288928Y1931463D01*
X288300Y1931512D01*
X287672Y1931463D01*
X287060Y1931316D01*
X286478Y1931075D01*
X285942Y1930746D01*
X285463Y1930337D01*
X285054Y1929858D01*
X284725Y1929322D01*
X284484Y1928740D01*
X284337Y1928128D01*
X284307Y1927750D01*
X279400Y1922843D01*
Y1936800D01*
G37*
G36*
X176900D02*X279400D01*
Y1922843D01*
X277362Y1920804D01*
X277272Y1920728D01*
X276965Y1920369D01*
X276719Y1919966D01*
X276538Y1919530D01*
X276428Y1919071D01*
X276428Y1919070D01*
X276391Y1918600D01*
X276400Y1918482D01*
Y1890794D01*
X266743Y1890791D01*
X266590Y1890754D01*
X266445Y1890694D01*
X266310Y1890612D01*
X266191Y1890509D01*
X266088Y1890390D01*
X266006Y1890255D01*
X265946Y1890110D01*
X265909Y1889957D01*
X265900Y1889800D01*
X265909Y1884643D01*
X265946Y1884490D01*
X266006Y1884345D01*
X266088Y1884210D01*
X266191Y1884091D01*
X266310Y1883988D01*
X266445Y1883906D01*
X266590Y1883846D01*
X266743Y1883809D01*
X266900Y1883800D01*
X279400Y1883805D01*
Y1864600D01*
X256193D01*
X256134Y1864605D01*
X255899Y1864586D01*
X255669Y1864531D01*
X255451Y1864441D01*
X255250Y1864317D01*
X255249Y1864317D01*
X255070Y1864164D01*
X255032Y1864119D01*
X251213Y1860300D01*
X230191D01*
X230191Y1860357D01*
X230154Y1860510D01*
X230094Y1860655D01*
X230012Y1860790D01*
X229909Y1860909D01*
X229790Y1861012D01*
X229655Y1861094D01*
X229510Y1861154D01*
X229357Y1861191D01*
X229200Y1861200D01*
X204043Y1861191D01*
X203890Y1861154D01*
X203745Y1861094D01*
X203610Y1861012D01*
X203491Y1860909D01*
X203388Y1860790D01*
X203306Y1860655D01*
X203246Y1860510D01*
X203209Y1860357D01*
X203206Y1860300D01*
X188191D01*
X188191Y1860357D01*
X188154Y1860510D01*
X188094Y1860655D01*
X188012Y1860790D01*
X187909Y1860909D01*
X187790Y1861012D01*
X187655Y1861094D01*
X187510Y1861154D01*
X187357Y1861191D01*
X187200Y1861200D01*
X176900Y1861196D01*
Y1936800D01*
G37*
G54D11*X400000Y1897100D02*Y1922000D01*
X366000Y1863100D02*X400000Y1897100D01*
G54D13*X369000Y1820692D02*X369100Y1820792D01*
G54D11*X387819Y1814500D02*X389000D01*
G54D13*X369059Y1840259D02*X386500Y1857700D01*
X369059Y1818792D02*Y1840259D01*
X401808Y1814500D02*X387960D01*
G54D11*X256134Y1863100D02*X366000D01*
X206111Y1813077D02*X256134Y1863100D01*
G54D13*X299500Y1815800D02*Y1828800D01*
X363841Y1838359D02*X344500Y1857700D01*
X363841Y1818692D02*Y1838359D01*
X216312Y1812759D02*X230869D01*
G54D14*X288300Y1927500D02*X279400Y1918600D01*
X298300Y1927500D02*X321400Y1904400D01*
Y1887300D01*
X279400Y1918600D02*Y1887300D01*
G54D13*X237749Y1801700D02*Y1805814D01*
X230869Y1812759D02*X237700Y1805928D01*
X232700Y1805200D02*X226700D01*
X227200Y1805700D02*X225200Y1807700D01*
X227700Y1803751D02*Y1807200D01*
X227208Y1803259D02*X227700Y1803751D01*
X219375Y1806985D02*X215200D01*
X217641Y1798141D02*X216200Y1796700D01*
X227208Y1798141D02*X217641D01*
G54D11*X215208Y1803259D02*X214649Y1802700D01*
G54D13*X220708Y1803200D02*X215700D01*
X220708Y1808318D02*X219375Y1806985D01*
X225200Y1807700D02*X221200D01*
G54D11*X212076Y1805200D02*X208700D01*
X214649Y1802700D02*X209200D01*
X213149Y1800200D02*X208700D01*
X215208Y1798141D02*X213149Y1800200D01*
G54D13*X216312Y1812759D02*X213700Y1810147D01*
G54D11*X211959Y1807959D02*X214200Y1810200D01*
X210717Y1807959D02*X211959D01*
X213861Y1806985D02*X212076Y1805200D01*
X215200Y1806985D02*X213861D01*
G54D13*X210200Y1795200D02*X208700Y1796700D01*
X210200Y1793574D02*Y1795200D01*
X210582Y1793192D02*X210200Y1793574D01*
X216200Y1792700D02*Y1798200D01*
X215700Y1792200D02*X216200Y1792700D01*
X215700Y1786251D02*Y1792200D01*
X107500Y1874100D02*X124500Y1857100D01*
X84600Y1874100D02*X107500D01*
X109500Y1884100D02*X124500Y1899100D01*
X84600Y1884100D02*X109500D01*
G54D11*X568900Y1922000D02*X430000D01*
X420000Y1908779D02*Y1922000D01*
X475811Y1852968D02*X420000Y1908779D01*
G54D13*X463900Y1840000D02*X444400Y1859500D01*
G54D14*X569400Y1812000D02*X477400Y1904000D01*
X446600D01*
G54D13*X469300Y1826382D02*Y1834500D01*
X469018Y1826100D02*X469300Y1826382D01*
X469018Y1820733D02*Y1826100D01*
X463900Y1820241D02*Y1840000D01*
G54D11*X475811Y1813077D02*Y1852968D01*
G54D13*X502400Y1859500D02*X486400D01*
X502500Y1859400D02*X502400Y1859500D01*
X469059Y1820692D02*X469018Y1820733D01*
X463941Y1820200D02*X463900Y1820241D01*
X463941Y1810241D02*Y1820200D01*
X463900Y1810200D02*X463941Y1810241D01*
G54D11*X459100Y1805400D02*X463900Y1810200D01*
X452583Y1805400D02*X459100D01*
X482559Y1807959D02*X478114D01*
X475811Y1810518D02*X473200D01*
G54D13*X471618D02*X473971D01*
X466356Y1805256D02*X471618Y1810518D01*
G54D11*X442882Y1811900D02*X433100Y1802118D01*
X443388Y1809577D02*X435300Y1801489D01*
X452900Y1811900D02*X442882D01*
X450104Y1809577D02*X443388D01*
G54D13*X456500Y1811900D02*X453200D01*
G54D11*X447849Y1802841D02*X454886D01*
X446908Y1801900D02*X447849Y1802841D01*
X451722Y1807959D02*X450104Y1809577D01*
X452583Y1807959D02*X451722D01*
G54D13*X443818Y1806118D02*X447500D01*
G54D11*X452583Y1807959D02*X451224D01*
X448526Y1805400D02*X454886D01*
X446908Y1807018D02*X448526Y1805400D01*
G54D13*X506682Y1813318D02*X502200D01*
X501908D02*X492100D01*
X511700Y1808300D02*X506682Y1813318D01*
G54D15*X507200Y1805400D02*X502700D01*
G54D13*X504300Y1808000D02*X502400D01*
X506900Y1805400D02*X504300Y1808000D01*
X502118Y1807918D02*X495000D01*
X502400Y1808200D02*X502118Y1807918D01*
X502400Y1802810D02*Y1808200D01*
X501908Y1802318D02*X502400Y1802810D01*
G54D11*X483477Y1802841D02*X478114D01*
X483500Y1802818D02*X483477Y1802841D01*
X472400Y1805400D02*X478114D01*
X472200Y1805200D02*X472400Y1805400D01*
G54D16*X494490Y1802818D02*X482293D01*
G54D13*X494508Y1802800D02*X494490Y1802818D01*
X486782Y1808000D02*X482320D01*
X492100Y1813318D02*X486782Y1808000D01*
X279500Y1815800D02*X256000Y1792300D01*
G54D11*X348500Y1809800D02*X336000D01*
X350341Y1807959D02*X348500Y1809800D01*
X352583Y1807959D02*X350341D01*
G54D13*X341109Y1805809D02*X345291D01*
G54D11*X352174D02*X344800D01*
X352583Y1805400D02*X352174Y1805809D01*
X352583Y1802841D02*X350100D01*
G54D13*X349141Y1801541D02*X350400Y1802800D01*
X344959Y1801541D02*X349141D01*
X344959Y1793233D02*Y1801541D01*
G54D11*X336000Y1809800D02*X330900Y1804700D01*
G54D13*X333900Y1798600D02*X341109Y1805809D01*
X333900Y1779400D02*Y1798600D01*
X339841Y1791315D02*Y1795200D01*
X339800Y1791274D02*X339841Y1791315D01*
X348974Y1782100D02*X339800Y1791274D01*
X348200Y1789992D02*X344959Y1793233D01*
X354700Y1796900D02*Y1791374D01*
X359700Y1789900D02*X354700Y1794900D01*
X359700Y1782100D02*X348974D01*
X356300Y1789500D02*Y1791000D01*
X353318Y1789992D02*X354700Y1791374D01*
X359300Y1789500D02*X353318D01*
X359700Y1789900D02*X359300Y1789500D01*
X391700Y1784200D02*X388059Y1787841D01*
X382849Y1786000D02*X368200D01*
X382941Y1786092D02*X382849Y1786000D01*
X388059Y1791159D02*Y1785600D01*
X388018Y1791200D02*X388059Y1791159D01*
X401808Y1799100D02*X388000D01*
X401908Y1799200D02*X401808Y1799100D01*
G54D11*X363841Y1811191D02*Y1818300D01*
X385919Y1812600D02*X387819Y1814500D01*
X381278Y1807959D02*X386050Y1812731D01*
X375811Y1807959D02*X381278D01*
X358050Y1805400D02*X363841Y1811191D01*
X352583Y1805400D02*X358050D01*
G54D13*X356500Y1811700D02*X353300D01*
G54D11*X352583Y1800282D02*X361900D01*
G54D13*X363182D02*X359029D01*
X366500Y1803600D02*X363182Y1800282D01*
G54D11*X375811Y1810518D02*X373550D01*
G54D13*X373718D02*X373971D01*
X366650Y1803450D02*X373718Y1810518D01*
X386116Y1802826D02*X384572D01*
G54D16*X386574Y1809418D02*X383900Y1806744D01*
G54D13*X387508Y1804218D02*X386116Y1802826D01*
G54D11*X382556Y1805400D02*X384278Y1807122D01*
X375811Y1805400D02*X382556D01*
G54D13*X373400Y1796700D02*X366500Y1803600D01*
X376500Y1796700D02*X373400D01*
X382900Y1794000D02*X380000Y1796900D01*
X382900Y1791692D02*Y1794000D01*
X388018Y1798590D02*Y1791200D01*
X387508Y1799100D02*X388018Y1798590D01*
G54D11*X383600Y1799100D02*X388900D01*
X382418Y1800282D02*X383600Y1799100D01*
G54D13*X379800Y1796700D02*X376400D01*
X380000Y1796900D02*X379800Y1796700D01*
G54D11*X375811Y1800282D02*X382418D01*
X384557Y1802841D02*X378114D01*
X384572Y1802826D02*X384557Y1802841D01*
G54D13*X395226Y1804218D02*X388000D01*
G54D16*X395308Y1809418D02*X386574D01*
G54D13*X395308Y1804300D02*X395226Y1804218D01*
X642059Y1821000D02*X640759Y1819700D01*
X646300Y1821000D02*X642059D01*
X642459D02*X640759Y1822700D01*
X646300Y1821000D02*X642459D01*
X640759Y1817033D02*Y1824700D01*
X640718Y1816992D02*X640759Y1817033D01*
G54D11*X651100Y1809100D02*Y1839800D01*
X648191Y1809100D02*X651100D01*
X648014Y1809277D02*X648191Y1809100D01*
X645711Y1809277D02*X648014D01*
X652088Y1804099D02*X648500D01*
X652889Y1804900D02*X652088Y1804099D01*
G54D13*X635641Y1817033D02*Y1824700D01*
G54D11*X644100Y1806718D02*X648014D01*
G54D13*X641518D02*X643871D01*
X674300Y1859000D02*X673700Y1859600D01*
G54D11*X645500D02*X646100Y1859000D01*
X651100Y1839800D02*X568900Y1922000D01*
G54D13*X678037Y1803463D02*X672163D01*
X680700Y1800300D02*X678037Y1802963D01*
X671408Y1803718D02*X670226Y1804900D01*
X652889D01*
G54D16*X661526Y1801600D02*X660000D01*
G54D11*X645711D02*X656000D01*
G54D16*X661526D02*X652157D01*
G54D13*X673700Y1859600D02*X655500D01*
X635641Y1837459D02*X613500Y1859600D01*
X635641Y1825192D02*Y1837459D01*
G54D11*X609582Y1808100D02*X601400Y1799918D01*
X610311Y1806000D02*X603500Y1799189D01*
G54D13*X611118Y1802918D02*X606300Y1798100D01*
G54D11*X622500Y1808100D02*X609582D01*
X618283Y1806000D02*X610311D01*
X620124Y1804159D02*X618283Y1806000D01*
G54D13*X615308Y1802918D02*X611118D01*
X635600Y1816992D02*X635641Y1817033D01*
X635600Y1808000D02*Y1816500D01*
X630900Y1803300D02*X635600Y1808000D01*
G54D11*X629200Y1801600D02*X630900Y1803300D01*
G54D13*X631200Y1796400D02*X641518Y1806718D01*
X631200Y1796400D02*X629051D01*
G54D11*X622809Y1807791D02*X622500Y1808100D01*
G54D13*X623100Y1807800D02*X626500Y1807900D01*
G54D11*X622483Y1804159D02*X620124D01*
X622483Y1801600D02*X629200D01*
X617610D02*X624786D01*
X616292Y1802918D02*X617610Y1801600D01*
X554800Y1602900D02*Y1595700D01*
X544800Y1609100D02*Y1595700D01*
X534150D02*X534800D01*
X529400Y1600450D02*X534150Y1595700D01*
X615859Y1605100D02*X594200D01*
X564800Y1596225D02*Y1595700D01*
X488859Y1668841D02*X554800Y1602900D01*
X489841Y1664059D02*X544800Y1609100D01*
X488250Y1600450D02*X529400D01*
X544800Y1595700D02*X534800Y1585700D01*
X594200Y1605100D02*X574800Y1585700D01*
X603500Y1624400D02*X574800Y1595700D01*
X584800Y1592900D02*Y1595700D01*
X601400Y1632300D02*X564800Y1595700D01*
X601400Y1677300D02*Y1632300D01*
G54D13*X566300Y1653400D02*Y1673300D01*
G54D14*X587900Y1670500D02*X573900D01*
G54D11*X587900Y1677500D02*X580400Y1685000D01*
X551400D01*
X603500Y1799189D02*Y1624400D01*
X594800Y1595700D02*X612400D01*
X601400Y1799918D02*Y1677325D01*
G54D13*X610882Y1792592D02*Y1784174D01*
X606300Y1770100D02*Y1798000D01*
G54D11*X620683Y1663941D02*X624886D01*
X621559D02*X624886D01*
X629600Y1688300D02*Y1672900D01*
X620542Y1663800D02*X620683Y1663941D01*
G54D13*X619900Y1663800D02*X620542D01*
X618200Y1662100D02*X619900Y1663800D01*
X618200Y1658600D02*Y1662100D01*
X622908Y1653892D02*X618200Y1658600D01*
X631700Y1653892D02*X622908D01*
X630400Y1659900D02*X623300D01*
G54D11*X620300Y1665200D02*X621559Y1663941D01*
X644032Y1658823D02*X648114D01*
X644009Y1658800D02*X644032Y1658823D01*
G54D13*X639559Y1669059D02*X630400Y1659900D01*
X635500Y1667500D02*X623050D01*
X636900Y1666100D02*X635500Y1667500D01*
G54D16*X639559Y1669059D02*X643848D01*
X636900Y1665100D02*X643200Y1658800D01*
G54D13*X636900Y1666400D02*Y1665100D01*
G54D11*X620300Y1673600D02*Y1665200D01*
X620900Y1674200D02*X620300Y1673600D01*
X622560Y1674200D02*X620900D01*
X622583Y1674177D02*X622560Y1674200D01*
X628318Y1671618D02*X624886D01*
X629600Y1672900D02*X628318Y1671618D01*
X651278Y1661382D02*X648114D01*
X654808Y1663941D02*X648114D01*
X643800Y1666500D02*X648114D01*
X642400Y1665100D02*X643800Y1666500D01*
G54D13*X643200Y1658800D02*X644009D01*
G54D11*X643600Y1669059D02*X654808D01*
X655477Y1674177D02*X648114D01*
X655500Y1674200D02*X655477Y1674177D01*
X644918Y1671618D02*X648114D01*
X644900Y1671600D02*X644918Y1671618D01*
X643600Y1672900D02*X644900Y1671600D01*
X643600Y1688700D02*Y1672900D01*
X649400Y1694500D02*X643600Y1688700D01*
X623400Y1694500D02*X629600Y1688300D01*
G54D13*X636900Y1724700D02*Y1650400D01*
X631400Y1726300D02*X635600Y1730500D01*
X631400Y1712500D02*Y1726300D01*
X623400Y1704500D02*X631400Y1712500D01*
G54D11*X616941Y1799041D02*X615800Y1797900D01*
G54D13*Y1792300D02*Y1797800D01*
X616000Y1792100D02*X615800Y1792300D01*
X616000Y1786174D02*Y1792100D01*
X616082Y1786092D02*X616000Y1786174D01*
G54D11*X622483Y1799041D02*X616941D01*
G54D13*X621200Y1786092D02*X624700Y1789592D01*
X621200Y1786092D02*X621300Y1786192D01*
G54D15*X621208Y1786100D02*X629900D01*
G54D13*X621200Y1786092D02*X621208Y1786100D01*
X616756Y1778300D02*X629900D01*
X610882Y1784174D02*X616756Y1778300D01*
X624700Y1788900D02*Y1791600D01*
X627500Y1786100D02*X624700Y1788900D01*
X628400Y1748000D02*X606300Y1770100D01*
X628400Y1737500D02*Y1748000D01*
Y1737500D02*X654400D01*
G54D11*X655159Y1644400D02*X615859Y1605100D01*
X612400Y1595700D02*X659100Y1642400D01*
X636400Y1650800D02*X636900D01*
X634800Y1649200D02*X636400Y1650800D01*
X634800Y1647600D02*Y1649200D01*
X655159Y1652792D02*Y1644359D01*
X659100Y1659649D02*Y1642400D01*
X654808Y1663941D02*X659100Y1659649D01*
X655159Y1652300D02*X655100Y1652241D01*
X655159Y1657459D02*Y1652300D01*
X655180Y1657480D02*X655159Y1657459D01*
X650041Y1656405D02*X647623Y1658823D01*
X650041Y1652792D02*Y1656405D01*
X655159Y1657501D02*X651278Y1661382D01*
G54D13*X636900Y1737400D02*Y1736000D01*
X637000Y1737500D02*X636900Y1737400D01*
X635600Y1730500D02*X660500D01*
X649400Y1704500D02*X680700Y1735800D01*
X660500Y1730500D02*X671682Y1741682D01*
X680700Y1735800D02*Y1800300D01*
X671682Y1741682D02*Y1788382D01*
Y1785000D02*X668600Y1788082D01*
X671190Y1788382D02*X671108Y1788300D01*
X673703Y1796000D02*X671703Y1794000D01*
X676500Y1796000D02*X673703D01*
X674992D02*X676500D01*
X672392Y1798600D02*X674992Y1796000D01*
X671900Y1798600D02*X671682Y1793500D01*
X664508Y1798618D02*X671900Y1798600D01*
G54D16*X664508Y1798618D02*X661526Y1801600D01*
G54D13*X664508Y1793500D02*X658200D01*
X671108Y1788300D02*X658200D01*
X655918Y1788382D02*X653600Y1790700D01*
X658200Y1788382D02*X655918D01*
X658200Y1793500D02*X653600Y1798100D01*
X636400Y1795700D02*Y1801600D01*
X658200Y1785700D02*X660800Y1788300D01*
X658200Y1783918D02*Y1788382D01*
X658577Y1783541D02*X658200Y1783918D01*
X658577Y1778633D02*Y1783541D01*
X657677Y1777733D02*X658577Y1778633D01*
G54D11*X651178Y1796482D02*X652800Y1794800D01*
Y1791500D02*Y1794800D01*
X653300Y1791000D02*X652800Y1791500D01*
X645711Y1796482D02*X651178D01*
G54D17*X652467Y1799050D02*X648205D01*
G54D11*Y1798850D02*X648014Y1799041D01*
G54D17*X653217Y1798100D02*X652467Y1798850D01*
G54D13*X649846Y1790154D02*X646800Y1793200D01*
X649846Y1787646D02*Y1790154D01*
X648192Y1789300D02*X642800D01*
X653459Y1784033D02*X648192Y1789300D01*
X652559Y1777733D02*X642567D01*
G54D11*X629118Y1796482D02*X624786D01*
G54D13*X626500Y1792800D02*X626400Y1792900D01*
G54D11*X629200Y1796400D02*X629118Y1796482D01*
G54D13*X642800Y1789300D02*X636400Y1795700D01*
X642567Y1777733D02*X638100Y1782200D01*
X624700Y1791300D02*X623100Y1792900D01*
X624700Y1791200D02*X626300Y1792800D01*
X626400Y1792900D02*X623200D01*
X626300Y1792800D02*X626500D01*
X624700Y1789592D02*Y1790300D01*
G54D11*X435300Y1653400D02*X488250Y1600450D01*
G54D13*X466600Y1651800D02*Y1656300D01*
X471100Y1647300D02*X466600Y1651800D01*
X474290Y1657000D02*X466600D01*
X460200Y1663900D02*X453300D01*
G54D11*X483100Y1595700D02*X524800D01*
X288500Y1585700D02*X574800D01*
X433100Y1645700D02*X483100Y1595700D01*
X393200Y1660076D02*X372524Y1639400D01*
X308500Y1626100D02*X330900Y1648500D01*
X308500Y1595700D02*Y1626100D01*
X298500Y1618800D02*X328900Y1649200D01*
X298500Y1595700D02*Y1618800D01*
X288500Y1601349D02*Y1595700D01*
X393200Y1661600D02*Y1660076D01*
X389641Y1665159D02*X393200Y1661600D01*
X387108Y1665159D02*X389641D01*
X318500Y1595700D02*X328500Y1585700D01*
X278500Y1595700D02*X288500Y1585700D01*
X280500Y1595700D02*X278500D01*
Y1604400D02*Y1595700D01*
G54D13*X296300Y1653800D02*X293100Y1650600D01*
X296300Y1654900D02*Y1653800D01*
Y1683500D02*Y1654800D01*
X290000Y1664300D02*X289500Y1664800D01*
Y1672300D01*
G54D11*X395700Y1662849D02*Y1654200D01*
X387108Y1671441D02*X395700Y1662849D01*
X362200Y1639400D02*X362800D01*
X318500Y1595700D02*X362200Y1639400D01*
X337200Y1595700D02*X328500D01*
X395700Y1654200D02*X337200Y1595700D01*
X372524Y1639400D02*X362200D01*
G54D13*X362767Y1651800D02*X366459Y1655492D01*
X361341Y1656508D02*X352492D01*
X366459Y1657492D02*X370567Y1661600D01*
X354100Y1666400D02*X350800D01*
X348800Y1660700D02*Y1668000D01*
X348700Y1660300D02*X349100Y1660700D01*
X352492Y1656508D02*X348700Y1660300D01*
X370567Y1661600D02*X376600D01*
G54D11*X379400Y1662700D02*X377100D01*
X382059Y1660041D02*X379400Y1662700D01*
X387108Y1660041D02*X382059D01*
X222108Y1667741D02*X288500Y1601349D01*
X218441Y1664459D02*X278500Y1604400D01*
X254400Y1609800D02*X251000D01*
X268500Y1595700D02*X254400Y1609800D01*
X227200D02*X254400D01*
X258500Y1595700D02*X236851D01*
X164500Y1672500D02*X227200Y1609800D01*
X236851Y1595700D02*X161951Y1670600D01*
X197900Y1663100D02*X197200Y1663800D01*
G54D17*X187500Y1666500D02*X183200D01*
G54D13*X200459Y1659341D02*X196500Y1663300D01*
X216108Y1659341D02*X200459D01*
G54D11*X202500Y1665573D02*X204436Y1663636D01*
X202500Y1667350D02*Y1665573D01*
X203675Y1668525D02*X202500Y1667350D01*
X203675Y1667675D02*Y1668525D01*
X202500Y1666500D02*X203675Y1667675D01*
X205450Y1662623D02*X208614D01*
X204000Y1664073D02*X205450Y1662623D01*
X204000Y1668850D02*Y1664073D01*
G54D13*X178300Y1662925D02*Y1673400D01*
G54D11*X190918Y1675418D02*X185386D01*
X178300Y1677200D02*Y1669200D01*
X179100Y1678000D02*X178300Y1677200D01*
X185363Y1678000D02*X179100D01*
G54D13*X224000Y1650600D02*X215259Y1659341D01*
X202959D02*X201800D01*
G54D11*X212877Y1665182D02*X208614D01*
X213600Y1664459D02*X212877Y1665182D01*
X213220Y1667741D02*X208614D01*
X213800Y1668320D02*X213220Y1667741D01*
G54D13*X213602Y1664459D02*X213237Y1664823D01*
X216108Y1664459D02*X213602D01*
X221528Y1668320D02*X213381D01*
X216790Y1672859D02*X212757D01*
X222108Y1667741D02*X221528Y1668320D01*
X216808Y1672841D02*X216790Y1672859D01*
X222090Y1672841D02*X217300D01*
X222108Y1672859D02*X222090Y1672841D01*
X216808Y1677959D02*X212785D01*
G54D11*X204400Y1675418D02*X203000Y1676818D01*
X206311Y1675418D02*X204400D01*
G54D13*X185033Y1656192D02*X178300Y1662925D01*
X195641Y1656192D02*X185033D01*
X200759Y1659041D02*X198850Y1660950D01*
X200759Y1656192D02*Y1659041D01*
X215259Y1659341D02*X213500D01*
G54D11*X185386Y1677977D02*X185363Y1678000D01*
X203059Y1672859D02*X208614D01*
X191600Y1672900D02*X185700D01*
X195900Y1668600D02*X191600Y1672900D01*
G54D13*X196500Y1666400D02*Y1671900D01*
G54D11*X193100Y1677600D02*X190918Y1675418D01*
X196823Y1668123D02*X203059Y1672859D01*
X205450Y1670300D02*X204000Y1668850D01*
X206311Y1670300D02*X205450D01*
X183260Y1662800D02*X197400D01*
X183083Y1662623D02*X183260Y1662800D01*
X194100Y1670300D02*X185700D01*
X195300Y1669100D02*X194100Y1670300D01*
X196500Y1663000D02*Y1665200D01*
X195800Y1663900D02*Y1667300D01*
X195000Y1663100D02*X195800Y1663900D01*
X197200Y1663800D02*Y1666900D01*
G54D14*X149500Y1595700D02*X166400Y1612600D01*
G54D11*X179759Y1667741D02*X185386D01*
X178300Y1669200D02*X179759Y1667741D01*
G54D14*X166400Y1612600D02*Y1639100D01*
X114400D02*Y1620800D01*
X139500Y1595700D01*
X559400Y1715500D02*Y1757000D01*
G54D13*Y1660500D02*Y1671000D01*
G54D11*X551400Y1685000D02*X549400Y1683000D01*
Y1681500D01*
G54D18*Y1667500D01*
G54D13*X548400Y1804500D02*X527900Y1784000D01*
Y1692500D01*
X549400Y1671000D01*
X488600Y1797200D02*X502400D01*
X488100Y1797700D02*X488600Y1797200D01*
X488100Y1792259D02*Y1797700D01*
X488159Y1792200D02*X488100Y1792259D01*
X488159Y1786592D02*Y1792200D01*
X490200Y1734000D02*X493500Y1737300D01*
G54D11*X486608Y1668841D02*X488859D01*
X486000Y1672859D02*X487100Y1673959D01*
X475911Y1672859D02*X486000D01*
X475911Y1670300D02*X475050D01*
X484577Y1677977D02*X479277D01*
X475911D02*X481378D01*
X485300Y1678700D02*X484577Y1677977D01*
X472641Y1672859D02*X478214D01*
X474882Y1675418D02*X478214D01*
X473700Y1676600D02*X474882Y1675418D01*
X479500Y1698300D02*X473700Y1692500D01*
X459600Y1692200D02*Y1676868D01*
X453500Y1698300D02*X459600Y1692200D01*
X472600Y1672900D02*X472641Y1672859D01*
G54D13*X466600Y1656700D02*Y1725200D01*
G54D11*X473700Y1692500D02*Y1676600D01*
G54D13*X453500Y1708300D02*X460400Y1715200D01*
G54D11*X486508Y1664059D02*X489841D01*
G54D13*X486508Y1658941D02*X484567Y1657000D01*
G54D11*X485385Y1665182D02*X478214D01*
X486508Y1664059D02*X485385Y1665182D01*
G54D13*X484567Y1657000D02*X466600D01*
G54D11*X474977Y1662623D02*X478214D01*
X473700Y1663900D02*X474977Y1662623D01*
X485508Y1667741D02*X478214D01*
X486608Y1668841D02*X485508Y1667741D01*
G54D13*X449200Y1666246D02*X450754Y1667800D01*
X449200Y1661625D02*Y1666246D01*
X453533Y1657292D02*X449200Y1661625D01*
X461500Y1657292D02*X453533D01*
G54D11*X451822Y1667741D02*X454986D01*
X450200Y1669363D02*X451822Y1667741D01*
X473700Y1668950D02*Y1663900D01*
X475050Y1670300D02*X473700Y1668950D01*
G54D13*X469200Y1672900D02*X460200Y1663900D01*
X466600Y1670300D02*X465400Y1671500D01*
X469200Y1672900D02*X473776D01*
X465400Y1671500D02*X453300D01*
G54D11*X450200Y1676355D02*Y1669363D01*
X458150Y1675418D02*X454986D01*
X451822Y1677977D02*X450200Y1676355D01*
X452683Y1677977D02*X451822D01*
X459600Y1676868D02*X458150Y1675418D01*
G54D13*X466600Y1737700D02*X463000Y1741300D01*
X466600Y1737500D02*Y1737700D01*
Y1738600D02*X469300Y1741300D01*
X466600Y1738100D02*Y1738600D01*
X468000Y1734000D02*X490200D01*
X460300Y1726300D02*X468000Y1734000D01*
X460400Y1715200D02*X460300Y1726300D01*
X458500Y1741300D02*X484500D01*
G54D11*X482600Y1808000D02*X482559Y1807959D01*
G54D13*X503818Y1802318D02*X502400D01*
X506900Y1805400D02*X503818Y1802318D01*
X484911Y1797700D02*X483293Y1799318D01*
X487608Y1797700D02*X484911D01*
G54D11*X482329Y1800282D02*X478114D01*
X483155Y1799455D02*X482329Y1800282D01*
G54D13*X461082D02*X459029D01*
X466206Y1805406D02*X461082Y1800282D01*
X474612Y1797000D02*X466400Y1805212D01*
X478733Y1797000D02*X474612D01*
X438100Y1800400D02*X443818Y1806118D01*
G54D11*X452583Y1800282D02*X459029D01*
G54D13*X452600Y1793700D02*X455900Y1797000D01*
X452600Y1790392D02*Y1793700D01*
X447400Y1797600D02*Y1801900D01*
X447500Y1797500D02*X447400Y1797600D01*
X447500Y1790410D02*Y1797500D01*
X447482Y1790392D02*X447500Y1790410D01*
X479500Y1708300D02*X511700Y1740500D01*
X493500Y1737300D02*Y1781200D01*
X458500Y1751100D02*X438100Y1771500D01*
X458500Y1741300D02*Y1751100D01*
X511700Y1740500D02*Y1808300D01*
X488159Y1786592D02*X493500Y1781251D01*
X483041Y1792692D02*X478733Y1797000D01*
X468000Y1786100D02*X483041D01*
X467900Y1786000D02*X468000Y1786100D01*
X459700Y1789900D02*X452600D01*
X438100Y1771500D02*Y1800400D01*
X442382Y1787182D02*Y1797500D01*
X442100Y1786900D02*X442382Y1787182D01*
X446900Y1782100D02*X442100Y1786900D01*
X459700Y1782100D02*X446900D01*
G54D11*X410000Y1847266D02*Y1922000D01*
X435300Y1801489D02*Y1653500D01*
X433100Y1671400D02*Y1645700D01*
Y1802118D02*Y1671300D01*
G54D13*X413700Y1742500D02*Y1811100D01*
X395308Y1809418D02*X401500D01*
X401908Y1809441D02*X407300D01*
X401908D02*Y1803800D01*
X401858Y1814450D02*X410350D01*
X401808Y1814500D02*X401858Y1814450D01*
X413700Y1811100D02*X410300Y1814500D01*
G54D11*X328900Y1804128D02*Y1649200D01*
X330900Y1804700D02*Y1648500D01*
G54D13*X381500Y1680819D02*X379299Y1678618D01*
G54D11*X373776Y1672900D02*X379400D01*
G54D13*X379399Y1678518D02*X376600D01*
G54D11*X368500Y1703500D02*X366200Y1705800D01*
X383300Y1703500D02*X368700D01*
X388100Y1698000D02*X383300Y1703500D01*
X388100Y1677551D02*Y1698000D01*
X387108Y1676559D02*X388100Y1677551D01*
G54D13*X381600Y1684400D02*Y1680519D01*
G54D11*X387049Y1665100D02*X379200D01*
X387108Y1665159D02*X387049Y1665100D01*
X382800Y1667700D02*X377600D01*
X386541Y1671441D02*X382800Y1667700D01*
X388092Y1671441D02*X386541D01*
G54D13*X374000Y1734900D02*X386900D01*
X360900Y1721800D02*X374000Y1734900D01*
X360900Y1715700D02*Y1721800D01*
X353500Y1708300D02*X360900Y1715700D01*
X358500Y1741300D02*X384500D01*
X369300Y1672900D02*X373776D01*
G54D11*X381700Y1670400D02*X379300D01*
X383500Y1672200D02*X381700Y1670400D01*
X383500Y1677000D02*Y1672200D01*
X382523Y1677977D02*X383500Y1677000D01*
X380417Y1677977D02*X382523D01*
G54D13*X366600Y1670200D02*X369300Y1672900D01*
X353300Y1671600D02*X365200D01*
X366500Y1670300D02*X365200Y1671600D01*
X366500Y1662700D02*X366600Y1721900D01*
G54D11*X372700Y1691400D02*X379900Y1698600D01*
X372700Y1677600D02*Y1691400D01*
X374882Y1675418D02*X372700Y1677600D01*
X375811Y1675418D02*X374882D01*
X360100Y1692000D02*X353500Y1698600D01*
X360100Y1677468D02*Y1692000D01*
X358050Y1675418D02*X360100Y1677468D01*
X357189Y1675418D02*X358050D01*
X350841Y1667741D02*X349300Y1666200D01*
X352583Y1667741D02*X350841D01*
X350500Y1665000D02*X353500D01*
X375811Y1813077D02*X410000Y1847266D01*
G54D13*X402700Y1805800D02*X405400Y1808500D01*
X399400Y1808400D02*X401400Y1806400D01*
G54D11*X351100Y1677977D02*X349300Y1676177D01*
X328200Y1804828D02*X328900Y1804128D01*
X335272Y1811900D02*X328200Y1804828D01*
X352400Y1811900D02*X335272D01*
X352600Y1811700D02*X352400Y1811900D01*
G54D13*X379500Y1708300D02*X397700Y1726500D01*
X386900Y1734900D02*X391700Y1739700D01*
G54D11*X349300Y1666200D02*X350500Y1665000D01*
X375811Y1662623D02*X355300D01*
X349300Y1676177D02*Y1666200D01*
X352583Y1677977D02*X351100D01*
G54D13*X397750Y1726550D02*X413700Y1742500D01*
X391700Y1739700D02*Y1784200D01*
G54D11*X216108Y1664459D02*X218441D01*
G54D13*X296400Y1683600D02*X296300Y1683500D01*
X256000Y1696300D02*X275500Y1676800D01*
G54D14*X279500Y1682800D02*Y1670800D01*
G54D17*X288000Y1688800D02*X282500Y1683300D01*
G54D11*X278000D01*
G54D13*X338750Y1774550D02*X333900Y1779400D01*
X358500Y1754800D02*X338700Y1774600D01*
X358500Y1741300D02*Y1754800D01*
G54D14*X289500Y1741300D02*Y1757800D01*
Y1741800D02*Y1720800D01*
X303500Y1671800D02*X306000Y1674300D01*
X319500D01*
G54D17*Y1681800D02*X312500Y1688800D01*
X288000D01*
G54D13*X229200Y1739700D02*X219795Y1730295D01*
X229200Y1772751D02*Y1739700D01*
X219795Y1730295D02*X195050Y1730350D01*
X256000Y1792300D02*Y1696300D01*
X237749Y1738951D02*Y1802000D01*
Y1736549D02*Y1739000D01*
X209500Y1708300D02*X237749Y1736549D01*
X215700Y1786251D02*X229200Y1772751D01*
X196500Y1737100D02*X198900Y1739500D01*
X196500Y1737100D02*Y1741300D01*
Y1668856D02*Y1722600D01*
G54D11*X203000Y1691800D02*X209500Y1698300D01*
X203000Y1676818D02*Y1691800D01*
G54D13*X194182Y1820692D02*Y1827200D01*
X199200Y1844200D02*X211641Y1856641D01*
X199259Y1823692D02*X199200Y1844200D01*
X194141Y1844759D02*X182200Y1856700D01*
X194141Y1822708D02*Y1844759D01*
X199300Y1820692D02*X199299Y1820693D01*
Y1826142D01*
G54D11*X206111Y1810518D02*X205929Y1810700D01*
X194200Y1808200D02*Y1818200D01*
X191400Y1805400D02*X194200Y1808200D01*
X187489Y1805400D02*X191400D01*
X205929Y1810700D02*X203200D01*
G54D13*X203700D02*X204020D01*
X198200Y1805200D02*X203700Y1810700D01*
X198200Y1801700D02*Y1805200D01*
X186900Y1811600D02*X183500D01*
X188500Y1751400D02*X168200Y1771700D01*
X188500Y1741300D02*Y1751400D01*
X196500Y1737100D02*X194000Y1739600D01*
X190200Y1725500D02*X194995Y1730295D01*
G54D11*X161951Y1808328D02*Y1670600D01*
X166700Y1813077D02*X161951Y1808328D01*
X166600Y1810500D02*X164500Y1808400D01*
X168400Y1810500D02*X166600D01*
X167677Y1813077D02*X166700D01*
X182883D02*X167900D01*
X178800Y1810500D02*X168600D01*
X181341Y1807959D02*X178800Y1810500D01*
X185186Y1807959D02*X181341D01*
X164500Y1808400D02*Y1672400D01*
X187571Y1800200D02*X190700D01*
G54D13*X196700D02*X189451D01*
X198200Y1801700D02*X196700Y1800200D01*
X203200Y1796700D02*X198200Y1801700D01*
X206200Y1796700D02*X203200D01*
X208700D02*X206700D01*
X199700Y1785700D02*X210700D01*
X199400Y1786000D02*X199700Y1785700D01*
G54D11*X187489Y1800282D02*X187571Y1800200D01*
G54D13*X186700Y1795700D02*Y1796700D01*
X185251Y1789700D02*X192200D01*
X188500Y1741300D02*X214500D01*
X190300Y1781200D02*X176200D01*
X191200Y1782100D02*X190300Y1781200D01*
X168200Y1801200D02*Y1771700D01*
X172700Y1784700D02*Y1796700D01*
X176200Y1781200D02*X172700Y1784700D01*
X173818Y1806818D02*X168200Y1801200D01*
X176208Y1806818D02*X173818D01*
X183700Y1796700D02*X185700D01*
X183700Y1795700D02*Y1796700D01*
X185200Y1794200D02*X183700Y1795700D01*
X185200Y1794200D02*X186700Y1795700D01*
X185200Y1790633D02*Y1794200D01*
X184759Y1790192D02*X185200Y1790633D01*
X184759Y1790192D02*X185251Y1789700D01*
X179700Y1793700D02*Y1789200D01*
X177700Y1795700D02*X179700Y1793700D01*
X177700Y1800208D02*Y1795700D01*
X176208Y1801700D02*X177700Y1800208D01*
G54D11*X177341Y1802841D02*X176200Y1801700D01*
X182883Y1802841D02*X177341D01*
X178200Y1807200D02*X177200D01*
X182883Y1805400D02*X180000D01*
G54D17*X178200Y1807200D01*
G54D13*X190200Y1715000D02*Y1725500D01*
X183500Y1708300D02*X190200Y1715000D01*
G54D11*X193100Y1688700D02*Y1677600D01*
X183500Y1698300D02*X193100Y1688700D01*
G54D19*X209500Y1698300D03*
X183500D03*
Y1708300D03*
X209500D03*
Y1718300D03*
X183500D03*
G54D14*X188500Y1741300D03*
Y1761300D03*
X178500Y1751300D03*
X214500Y1741300D03*
X204500Y1751300D03*
X214500Y1761300D03*
G54D19*X400000Y1922000D03*
X410000D03*
X420000D03*
X430000D03*
Y1952000D03*
X420000D03*
X410000D03*
X400000D03*
X288300Y1927500D03*
X298300D03*
X84700Y1884200D03*
Y1874200D03*
X379500Y1698300D03*
X353500D03*
X453500D03*
X379500Y1708300D03*
X353500D03*
X453500D03*
X379500Y1718300D03*
X353500D03*
X453500D03*
G54D14*X384500Y1741300D03*
Y1761300D03*
X374500Y1751300D03*
X358500Y1741300D03*
Y1761300D03*
X348500Y1751300D03*
X448500D03*
G54D19*X479500Y1698300D03*
Y1708300D03*
Y1718300D03*
G54D14*X484500Y1741300D03*
Y1761300D03*
X474500Y1751300D03*
X458500Y1741300D03*
Y1761300D03*
X628400Y1737500D03*
X654400D03*
X628400Y1757500D03*
X654400D03*
X618400Y1747500D03*
X644400D03*
G54D19*X623400Y1694500D03*
Y1704500D03*
Y1714500D03*
X649400Y1694500D03*
Y1704500D03*
Y1714500D03*
X149500Y1595700D03*
X139500D03*
G54D20*X258500D03*
X268500D03*
X278500D03*
X288500D03*
X298500D03*
X308500D03*
X318500D03*
X328500D03*
X524800D03*
X534800D03*
X544800D03*
X554800D03*
X564800D03*
X574800D03*
X584800D03*
X594800D03*
G54D21*X344959Y1795692D02*Y1794708D01*
X339841Y1795692D02*Y1794708D01*
G54D22*X359700Y1789900D02*X360300D01*
X359700Y1782100D02*X360300D01*
G54D21*X353318Y1789992D02*Y1789008D01*
X348200Y1789992D02*Y1789008D01*
G54D23*X352583Y1813077D02*X357189D01*
X352583Y1807959D02*X357189D01*
X352583Y1805400D02*X357189D01*
X352583Y1802841D02*X357189D01*
X352583Y1800282D02*X357189D01*
X352583Y1797723D02*X357189D01*
G54D21*X344308Y1806659D02*X345292D01*
X344308Y1801541D02*X345292D01*
G54D22*X367900Y1786000D02*X368500D01*
G54D21*X388059Y1786092D02*Y1785108D01*
X382941Y1786092D02*Y1785108D01*
G54D23*X352583Y1810518D02*X357189D01*
G54D24*X334500Y1857700D02*X354500D01*
G54D21*X369100Y1826692D02*Y1825708D01*
X363982Y1826692D02*Y1825708D01*
X369000Y1820692D02*Y1819708D01*
X363882Y1820692D02*Y1819708D01*
G54D23*X375811Y1797723D02*X380417D01*
X375811Y1800282D02*X380417D01*
X375811Y1802841D02*X380417D01*
X375811Y1813077D02*X380417D01*
X375811Y1805400D02*X380417D01*
X375811Y1807959D02*X380417D01*
X375811Y1810518D02*X380417D01*
G54D21*X387508Y1804218D02*X388492D01*
X387508Y1799100D02*X388492D01*
X395308Y1809418D02*X396292D01*
X395308Y1804300D02*X396292D01*
X401908Y1804318D02*X402892D01*
X401908Y1799200D02*X402892D01*
X401908Y1809441D02*X402892D01*
X401908Y1814559D02*X402892D01*
G54D24*X376500Y1857700D02*X396500D01*
X476400Y1859500D02*X496400D01*
X434400D02*X454400D01*
G54D21*X469059Y1820692D02*Y1819708D01*
X463941Y1820692D02*Y1819708D01*
X469018Y1826592D02*Y1825608D01*
X463900Y1826592D02*Y1825608D01*
G54D23*X452583Y1813077D02*X457189D01*
X452583Y1810518D02*X457189D01*
X452583Y1807959D02*X457189D01*
X452583Y1805400D02*X457189D01*
X452583Y1802841D02*X457189D01*
X452583Y1800282D02*X457189D01*
X452583Y1797723D02*X457189D01*
G54D21*X452600Y1790392D02*Y1789408D01*
X447482Y1790392D02*Y1789408D01*
G54D22*X459700Y1789900D02*X460300D01*
X459700Y1782100D02*X460300D01*
G54D21*X447008Y1801000D02*X447992D01*
X442382Y1797992D02*Y1797008D01*
X388018Y1791692D02*Y1790708D01*
X382900Y1791692D02*Y1790708D01*
X461500Y1657292D02*Y1656308D01*
X466618Y1657292D02*Y1656308D01*
G54D23*X452683Y1677977D02*X457289D01*
X452683Y1675418D02*X457289D01*
X452683Y1672859D02*X457289D01*
X452683Y1670300D02*X457289D01*
X452683Y1667741D02*X457289D01*
X452683Y1665182D02*X457289D01*
X452683Y1662623D02*X457289D01*
G54D21*X488159Y1786592D02*Y1785608D01*
X483041Y1786592D02*Y1785608D01*
G54D22*X467900Y1786000D02*X468500D01*
G54D21*X488159Y1792692D02*Y1791708D01*
X483041Y1792692D02*Y1791708D01*
G54D23*X475811Y1797723D02*X480417D01*
X475811Y1800282D02*X480417D01*
X475811Y1802841D02*X480417D01*
X475811Y1805400D02*X480417D01*
X475811Y1807959D02*X480417D01*
X475811Y1810518D02*X480417D01*
X475811Y1813077D02*X480417D01*
G54D21*X494508Y1807918D02*X495492D01*
X494508Y1802800D02*X495492D01*
X487608Y1802818D02*X488592D01*
X487608Y1797700D02*X488592D01*
X501908Y1802318D02*X502892D01*
X501908Y1808200D02*X502892D01*
X501908Y1813318D02*X502892D01*
X501908Y1797200D02*X502892D01*
G54D24*X645500Y1859600D02*X665500D01*
X603500D02*X623500D01*
G54D21*X640759Y1825192D02*Y1824208D01*
G54D23*X645711Y1806718D02*X650317D01*
X645711Y1809277D02*X650317D01*
G54D21*X635641Y1825192D02*Y1824208D01*
G54D23*X622483Y1809277D02*X627089D01*
X622483Y1806718D02*X627089D01*
X622483Y1804159D02*X627089D01*
X622483Y1801600D02*X627089D01*
X622483Y1799041D02*X627089D01*
X645711D02*X650317D01*
X645711Y1801600D02*X650317D01*
X645711Y1804159D02*X650317D01*
G54D21*X664508Y1798618D02*X665492D01*
G54D22*X629600Y1786100D02*X630200D01*
G54D23*X622483Y1796482D02*X627089D01*
X622483Y1793923D02*X627089D01*
G54D21*X621200Y1786092D02*Y1785108D01*
X616082Y1786092D02*Y1785108D01*
X610882Y1792592D02*Y1791608D01*
G54D22*X637800Y1782200D02*X638400D01*
G54D23*X645711Y1793923D02*X650317D01*
X645711Y1796482D02*X650317D01*
G54D21*X658577Y1784033D02*Y1783049D01*
X653459Y1784033D02*Y1783049D01*
X664508Y1793500D02*X665492D01*
X657708D02*X658692D01*
X657708Y1788382D02*X658692D01*
X671408Y1798600D02*X672392D01*
X671190Y1793500D02*X672174D01*
X671190Y1788382D02*X672174D01*
X671408Y1803718D02*X672392D01*
G54D23*X475911Y1672859D02*X480517D01*
G54D21*X486608Y1673959D02*X487592D01*
X486608Y1668841D02*X487592D01*
G54D23*X475911Y1675418D02*X480517D01*
X475911Y1677977D02*X480517D01*
X475911Y1662623D02*X480517D01*
X475911Y1665182D02*X480517D01*
X475911Y1667741D02*X480517D01*
X475911Y1670300D02*X480517D01*
G54D21*X486508Y1658941D02*X487492D01*
X486508Y1664059D02*X487492D01*
G54D12*G36*
X539600Y1728300D02*Y1688300D01*
X579600D01*
Y1728300D01*
X539600D01*
G37*
G36*
X539400Y1785500D02*Y1745500D01*
X579400D01*
Y1785500D01*
X539400D01*
G37*
G54D24*X569400Y1812000D02*Y1798000D01*
X549400Y1812000D02*Y1798000D01*
G54D25*X559600Y1679800D02*Y1666800D01*
X552900Y1679800D02*Y1666800D01*
X546200Y1679800D02*Y1666800D01*
X566300Y1679800D02*Y1666800D01*
X573000Y1679800D02*Y1666800D01*
G54D26*X587007Y1678043D02*X587793D01*
X587007Y1670957D02*X587793D01*
G54D23*X622583Y1674177D02*X627189D01*
X622583Y1671618D02*X627189D01*
X622583Y1669059D02*X627189D01*
X622583Y1666500D02*X627189D01*
X622583Y1663941D02*X627189D01*
X622583Y1661382D02*X627189D01*
X622583Y1658823D02*X627189D01*
G54D21*X631700Y1653892D02*Y1652908D01*
X636818Y1653892D02*Y1652908D01*
G54D23*X645811Y1658823D02*X650417D01*
X645811Y1661382D02*X650417D01*
X645811Y1663941D02*X650417D01*
X645811Y1666500D02*X650417D01*
X645811Y1669059D02*X650417D01*
X645811Y1671618D02*X650417D01*
X645811Y1674177D02*X650417D01*
G54D21*X654808Y1669059D02*X655792D01*
X654808Y1663941D02*X655792D01*
X650041Y1652792D02*Y1651808D01*
X655159Y1652792D02*Y1651808D01*
X447008Y1806118D02*X447992D01*
X640718Y1816992D02*Y1816008D01*
X635600Y1816992D02*Y1816008D01*
X615308Y1802918D02*X616292D01*
X447500Y1797992D02*Y1797008D01*
X615308Y1797800D02*X616292D01*
G54D22*X629600Y1778300D02*X630200D01*
G54D21*X657677Y1777733D02*Y1776749D01*
X652559Y1777733D02*Y1776749D01*
X616000Y1792592D02*Y1791608D01*
G54D23*X206111Y1797723D02*X210717D01*
G54D21*X215759Y1786192D02*Y1785208D01*
X210641Y1786192D02*Y1785208D01*
X215700Y1793192D02*Y1792208D01*
X210582Y1793192D02*Y1792208D01*
X215208Y1798141D02*X216192D01*
G54D23*X206111Y1800282D02*X210717D01*
X206111Y1802841D02*X210717D01*
X206111Y1805400D02*X210717D01*
X206111Y1807959D02*X210717D01*
X206111Y1810518D02*X210717D01*
X206111Y1813077D02*X210717D01*
G54D21*X220708Y1808318D02*X221692D01*
X220708Y1803200D02*X221692D01*
X215208Y1803259D02*X216192D01*
G54D22*X199400Y1786000D02*X200000D01*
G54D21*X199359Y1826692D02*Y1825708D01*
X199300Y1820692D02*Y1819708D01*
X227208Y1807641D02*X228192D01*
X227208Y1803259D02*X228192D01*
X227208Y1798141D02*X228192D01*
X227208Y1812759D02*X228192D01*
G54D24*X206700Y1857700D02*X226700D01*
X269400Y1887300D02*X289400D01*
X311400D02*X331400D01*
X114400Y1639100D02*X134400D01*
X156400D02*X176400D01*
G54D23*X182883Y1813077D02*X187489D01*
X182883Y1810518D02*X187489D01*
X182883Y1807959D02*X187489D01*
X182883Y1805400D02*X187489D01*
X182883Y1802841D02*X187489D01*
X182883Y1800282D02*X187489D01*
X182883Y1797723D02*X187489D01*
G54D21*X184759Y1790192D02*Y1789208D01*
X179641Y1790192D02*Y1789208D01*
X177759Y1796692D02*Y1795708D01*
X172641Y1796692D02*Y1795708D01*
G54D22*X191200Y1789900D02*X191800D01*
X191200Y1782100D02*X191800D01*
G54D21*X176208Y1806818D02*X177192D01*
X176208Y1801700D02*X177192D01*
G54D23*X206311Y1662623D02*X210917D01*
X183083D02*X187689D01*
G54D21*X195641Y1656192D02*Y1655208D01*
X200759Y1656192D02*Y1655208D01*
X216108Y1659341D02*X217092D01*
G54D23*X206311Y1665182D02*X210917D01*
X183083D02*X187689D01*
X206311Y1667741D02*X210917D01*
X183083D02*X187689D01*
X206311Y1670300D02*X210917D01*
X183083D02*X187689D01*
X183083Y1677977D02*X187689D01*
X183083Y1675418D02*X187689D01*
X183083Y1672859D02*X187689D01*
X206311D02*X210917D01*
X206311Y1675418D02*X210917D01*
X206311Y1677977D02*X210917D01*
G54D21*X222108Y1672859D02*X223092D01*
X222108Y1667741D02*X223092D01*
X216108Y1664459D02*X217092D01*
G54D24*X164700Y1857700D02*X184700D01*
G54D21*X194241Y1826692D02*Y1825708D01*
X194182Y1820692D02*Y1819708D01*
G54D24*X124600Y1909200D02*Y1889200D01*
Y1867200D02*Y1847200D01*
G54D23*X352583Y1677977D02*X357189D01*
X352583Y1675418D02*X357189D01*
X352583Y1672859D02*X357189D01*
X352583Y1670300D02*X357189D01*
X352583Y1667741D02*X357189D01*
X352583Y1665182D02*X357189D01*
X352583Y1662623D02*X357189D01*
G54D21*X361341Y1657492D02*Y1656508D01*
X366459Y1657492D02*Y1656508D01*
G54D26*X319107Y1681843D02*X319893D01*
G54D25*X289700Y1683600D02*Y1670600D01*
X283000Y1683600D02*Y1670600D01*
X276300Y1683600D02*Y1670600D01*
X296400Y1683600D02*Y1670600D01*
X303100Y1683600D02*Y1670600D01*
G54D26*X319107Y1674757D02*X319893D01*
G54D23*X375811Y1662623D02*X380417D01*
X375811Y1665182D02*X380417D01*
X375811Y1667741D02*X380417D01*
X375811Y1670300D02*X380417D01*
X375811Y1672859D02*X380417D01*
X375811Y1675418D02*X380417D01*
X375811Y1677977D02*X380417D01*
G54D21*X387108Y1676559D02*X388092D01*
X387108Y1671441D02*X388092D01*
X387108Y1660041D02*X388092D01*
X387108Y1665159D02*X388092D01*
G54D12*G36*
X269500Y1789300D02*Y1749300D01*
X309500D01*
Y1789300D01*
X269500D01*
G37*
G54D24*X299500Y1815800D02*Y1801800D01*
X279500Y1815800D02*Y1801800D01*
G54D12*G36*
X269700Y1732100D02*Y1692100D01*
X309700D01*
Y1732100D01*
X269700D01*
G37*
G54D27*X216700Y1678000D03*
G54D19*X381600Y1684400D03*
G54D27*X289500Y1664300D03*
X485300Y1678700D03*
X472300Y1666400D03*
X559400Y1660500D03*
G54D19*X369400Y1840000D03*
X366500Y1740500D03*
X366700Y1720300D03*
X349100Y1782200D03*
X351900Y1657100D03*
X362300Y1650700D03*
X289500Y1741300D03*
X293100Y1650600D03*
G54D27*X299600Y1828800D03*
Y1874000D03*
X383200Y1904200D03*
X178300Y1673300D03*
G54D19*X196500Y1722600D03*
Y1737100D03*
G54D27*X202500Y1666500D03*
G54D19*X224000Y1650600D03*
G54D27*X176700Y1781200D03*
X232700Y1805200D03*
G54D19*X200200Y1844200D03*
G54D28*X89100Y1921800D03*
Y1568100D03*
G54D27*X407400Y1809500D03*
X472200Y1805200D03*
X506900Y1805400D03*
G54D19*X559400Y1737500D03*
G54D27*X676500Y1796000D03*
X617300Y1778400D03*
G54D19*X636900Y1736000D03*
X637000Y1723600D03*
X466600Y1725200D03*
Y1738100D03*
G54D27*X453500Y1657500D03*
G54D19*X471100Y1647300D03*
G54D27*X623200Y1653900D03*
X642400Y1665100D03*
X655500Y1674200D03*
X636800Y1648800D03*
X566300Y1653400D03*
X447200Y1782300D03*
G54D19*X502500Y1859400D03*
X469300Y1834500D03*
G54D27*X446600Y1904000D03*
G54D19*X674300Y1859000D03*
G54D28*X705600Y1921400D03*
G54D27*X646300Y1821000D03*
G54D28*X705600Y1568100D03*
G54D16*G54D29*G54D16*G54D29*G54D16*G54D29*G54D16*G54D29*G54D16*G54D29*G54D30*G54D16*G54D29*G54D16*G54D29*G54D16*G54D29*G54D16*G54D29*G54D16*G54D29*G54D30*G54D16*G54D30*G54D14*G54D31*G54D14*G54D31*G54D14*G54D31*G54D14*G54D32*M02*
