G04 start of page 11 for group -4015 idx -4015 *
G04 Title: (unknown), toppaste *
G04 Creator: pcb 20110918 *
G04 CreationDate: Sun May 13 20:50:36 2012 UTC *
G04 For: mldelibero *
G04 Format: Gerber/RS-274X *
G04 PCB-Dimensions: 2000000 2000000 *
G04 PCB-Coordinate-Origin: lower left *
%MOIN*%
%FSLAX25Y25*%
%LNTOPPASTE*%
%ADD90R,0.0300X0.0300*%
%ADD89C,0.0001*%
%ADD88R,0.0512X0.0512*%
%ADD87R,0.0340X0.0340*%
%ADD86R,0.0295X0.0295*%
%ADD85R,0.0130X0.0130*%
%ADD84R,0.0500X0.0500*%
G54D84*X114400Y1639100D02*X134400D01*
X156400D02*X176400D01*
G54D85*X182883Y1813077D02*X187489D01*
X182883Y1810518D02*X187489D01*
X182883Y1807959D02*X187489D01*
X182883Y1805400D02*X187489D01*
X182883Y1802841D02*X187489D01*
X182883Y1800282D02*X187489D01*
X182883Y1797723D02*X187489D01*
X206111D02*X210717D01*
X206111Y1800282D02*X210717D01*
X206111Y1802841D02*X210717D01*
X206111Y1805400D02*X210717D01*
X206111Y1807959D02*X210717D01*
X206111Y1810518D02*X210717D01*
X206111Y1813077D02*X210717D01*
G54D86*X215759Y1786192D02*Y1785208D01*
X210641Y1786192D02*Y1785208D01*
X220708Y1808318D02*X221692D01*
X220708Y1803200D02*X221692D01*
G54D85*X206311Y1662623D02*X210917D01*
X206311Y1665182D02*X210917D01*
X206311Y1667741D02*X210917D01*
X206311Y1670300D02*X210917D01*
X206311Y1672859D02*X210917D01*
X206311Y1675418D02*X210917D01*
X206311Y1677977D02*X210917D01*
X183083D02*X187689D01*
X183083Y1675418D02*X187689D01*
X183083Y1672859D02*X187689D01*
X183083Y1670300D02*X187689D01*
X183083Y1667741D02*X187689D01*
X183083Y1665182D02*X187689D01*
X183083Y1662623D02*X187689D01*
G54D86*X184759Y1790192D02*Y1789208D01*
X179641Y1790192D02*Y1789208D01*
X177759Y1796692D02*Y1795708D01*
X172641Y1796692D02*Y1795708D01*
X215700Y1793192D02*Y1792208D01*
X210582Y1793192D02*Y1792208D01*
X215208Y1803259D02*X216192D01*
X215208Y1798141D02*X216192D01*
G54D87*X191200Y1789900D02*X191800D01*
X191200Y1782100D02*X191800D01*
X199400Y1786000D02*X200000D01*
G54D86*X195641Y1656192D02*Y1655208D01*
X200759Y1656192D02*Y1655208D01*
X227208Y1807641D02*X228192D01*
X227208Y1812759D02*X228192D01*
X227208Y1803259D02*X228192D01*
X227208Y1798141D02*X228192D01*
G54D84*X206700Y1857700D02*X226700D01*
X164700D02*X184700D01*
G54D86*X176208Y1806818D02*X177192D01*
X176208Y1801700D02*X177192D01*
X222108Y1672859D02*X223092D01*
X222108Y1667741D02*X223092D01*
X216108Y1659341D02*X217092D01*
X216108Y1664459D02*X217092D01*
X344959Y1795692D02*Y1794708D01*
X339841Y1795692D02*Y1794708D01*
G54D87*X359700Y1789900D02*X360300D01*
X359700Y1782100D02*X360300D01*
X367900Y1786000D02*X368500D01*
G54D85*X352583Y1813077D02*X357189D01*
X352583Y1810518D02*X357189D01*
X352583Y1807959D02*X357189D01*
X352583Y1805400D02*X357189D01*
X352583Y1802841D02*X357189D01*
X352583Y1800282D02*X357189D01*
X352583Y1797723D02*X357189D01*
X375811D02*X380417D01*
X375811Y1800282D02*X380417D01*
X375811Y1802841D02*X380417D01*
X375811Y1805400D02*X380417D01*
X375811Y1807959D02*X380417D01*
X375811Y1810518D02*X380417D01*
X375811Y1813077D02*X380417D01*
X375811Y1662623D02*X380417D01*
X375811Y1665182D02*X380417D01*
X375811Y1667741D02*X380417D01*
X375811Y1670300D02*X380417D01*
X375811Y1672859D02*X380417D01*
X375811Y1675418D02*X380417D01*
X375811Y1677977D02*X380417D01*
X352583D02*X357189D01*
X352583Y1675418D02*X357189D01*
X352583Y1672859D02*X357189D01*
X352583Y1670300D02*X357189D01*
X352583Y1667741D02*X357189D01*
X352583Y1665182D02*X357189D01*
X352583Y1662623D02*X357189D01*
G54D84*X376500Y1857700D02*X396500D01*
X334500D02*X354500D01*
G54D86*X388059Y1786092D02*Y1785108D01*
X382941Y1786092D02*Y1785108D01*
X353318Y1789992D02*Y1789008D01*
X348200Y1789992D02*Y1789008D01*
X344308Y1806659D02*X345292D01*
X344308Y1801541D02*X345292D01*
X387508Y1804218D02*X388492D01*
X387508Y1799100D02*X388492D01*
X395308Y1809418D02*X396292D01*
X395308Y1804300D02*X396292D01*
X401908Y1804318D02*X402892D01*
X401908Y1799200D02*X402892D01*
X361341Y1657492D02*Y1656508D01*
X366459Y1657492D02*Y1656508D01*
X401908Y1809441D02*X402892D01*
X401908Y1814559D02*X402892D01*
X387108Y1676559D02*X388092D01*
X387108Y1671441D02*X388092D01*
X387108Y1660041D02*X388092D01*
X387108Y1665159D02*X388092D01*
G54D88*X319107Y1681843D02*X319893D01*
X319107Y1674757D02*X319893D01*
G54D89*G36*
X269500Y1789300D02*Y1749300D01*
X309500D01*
Y1789300D01*
X269500D01*
G37*
G54D84*X299500Y1815800D02*Y1801800D01*
X279500Y1815800D02*Y1801800D01*
G54D89*G36*
X269700Y1732100D02*Y1692100D01*
X309700D01*
Y1732100D01*
X269700D01*
G37*
G54D90*X289700Y1683600D02*Y1670600D01*
X283000Y1683600D02*Y1670600D01*
X276300Y1683600D02*Y1670600D01*
X296400Y1683600D02*Y1670600D01*
X303100Y1683600D02*Y1670600D01*
G54D86*X461500Y1657292D02*Y1656308D01*
X466618Y1657292D02*Y1656308D01*
X469059Y1820692D02*Y1819708D01*
X463941Y1820692D02*Y1819708D01*
G54D84*X476400Y1859500D02*X496400D01*
X434400D02*X454400D01*
G54D86*X469018Y1826592D02*Y1825608D01*
X463900Y1826592D02*Y1825608D01*
G54D85*X452583Y1813077D02*X457189D01*
X452583Y1810518D02*X457189D01*
X452583Y1807959D02*X457189D01*
X452583Y1805400D02*X457189D01*
X452583Y1802841D02*X457189D01*
X452583Y1800282D02*X457189D01*
X452583Y1797723D02*X457189D01*
X475811D02*X480417D01*
X475811Y1800282D02*X480417D01*
X475811Y1802841D02*X480417D01*
X475811Y1805400D02*X480417D01*
X475811Y1807959D02*X480417D01*
X475811Y1810518D02*X480417D01*
X475811Y1813077D02*X480417D01*
G54D86*X452600Y1790392D02*Y1789408D01*
X447482Y1790392D02*Y1789408D01*
X488159Y1786592D02*Y1785608D01*
X483041Y1786592D02*Y1785608D01*
X488159Y1792692D02*Y1791708D01*
X483041Y1792692D02*Y1791708D01*
X447008Y1806118D02*X447992D01*
X447008Y1801000D02*X447992D01*
X494508Y1807918D02*X495492D01*
X494508Y1802800D02*X495492D01*
X447500Y1797992D02*Y1797008D01*
X442382Y1797992D02*Y1797008D01*
G54D87*X459700Y1789900D02*X460300D01*
X459700Y1782100D02*X460300D01*
X467900Y1786000D02*X468500D01*
G54D86*X487608Y1802818D02*X488592D01*
X487608Y1797700D02*X488592D01*
X388018Y1791692D02*Y1790708D01*
X382900Y1791692D02*Y1790708D01*
X501908Y1802318D02*X502892D01*
X501908Y1797200D02*X502892D01*
X501908Y1808200D02*X502892D01*
X501908Y1813318D02*X502892D01*
G54D85*X475911Y1662623D02*X480517D01*
X475911Y1665182D02*X480517D01*
X475911Y1667741D02*X480517D01*
X475911Y1670300D02*X480517D01*
X475911Y1672859D02*X480517D01*
X475911Y1675418D02*X480517D01*
X475911Y1677977D02*X480517D01*
X452683D02*X457289D01*
X452683Y1675418D02*X457289D01*
X452683Y1672859D02*X457289D01*
X452683Y1670300D02*X457289D01*
X452683Y1667741D02*X457289D01*
X452683Y1665182D02*X457289D01*
X452683Y1662623D02*X457289D01*
G54D86*X486608Y1673959D02*X487592D01*
X486608Y1668841D02*X487592D01*
X486508Y1658941D02*X487492D01*
X486508Y1664059D02*X487492D01*
X369100Y1826692D02*Y1825708D01*
X363982Y1826692D02*Y1825708D01*
X369000Y1820692D02*Y1819708D01*
X363882Y1820692D02*Y1819708D01*
X199359Y1826692D02*Y1825708D01*
X194241Y1826692D02*Y1825708D01*
X199300Y1820692D02*Y1819708D01*
X194182Y1820692D02*Y1819708D01*
G54D89*G36*
X539600Y1728300D02*Y1688300D01*
X579600D01*
Y1728300D01*
X539600D01*
G37*
G54D90*X559600Y1679800D02*Y1666800D01*
X552900Y1679800D02*Y1666800D01*
X546200Y1679800D02*Y1666800D01*
X566300Y1679800D02*Y1666800D01*
X573000Y1679800D02*Y1666800D01*
G54D89*G36*
X539400Y1785500D02*Y1745500D01*
X579400D01*
Y1785500D01*
X539400D01*
G37*
G54D84*X569400Y1812000D02*Y1798000D01*
X549400Y1812000D02*Y1798000D01*
G54D88*X587007Y1678043D02*X587793D01*
X587007Y1670957D02*X587793D01*
G54D86*X640718Y1816992D02*Y1816008D01*
X635600Y1816992D02*Y1816008D01*
G54D84*X645500Y1859600D02*X665500D01*
X603500D02*X623500D01*
G54D86*X640759Y1825192D02*Y1824208D01*
X635641Y1825192D02*Y1824208D01*
G54D87*X629600Y1786100D02*X630200D01*
X629600Y1778300D02*X630200D01*
X637800Y1782200D02*X638400D01*
G54D85*X645811Y1658823D02*X650417D01*
X645811Y1661382D02*X650417D01*
X645811Y1663941D02*X650417D01*
X645811Y1666500D02*X650417D01*
X645811Y1669059D02*X650417D01*
X645811Y1671618D02*X650417D01*
X645811Y1674177D02*X650417D01*
X622583D02*X627189D01*
X622583Y1671618D02*X627189D01*
X622583Y1669059D02*X627189D01*
X622583Y1666500D02*X627189D01*
X622583Y1663941D02*X627189D01*
X622583Y1661382D02*X627189D01*
X622583Y1658823D02*X627189D01*
X622483Y1809277D02*X627089D01*
X622483Y1806718D02*X627089D01*
X622483Y1804159D02*X627089D01*
X622483Y1801600D02*X627089D01*
X622483Y1799041D02*X627089D01*
X622483Y1796482D02*X627089D01*
X622483Y1793923D02*X627089D01*
X645711D02*X650317D01*
X645711Y1796482D02*X650317D01*
X645711Y1799041D02*X650317D01*
X645711Y1801600D02*X650317D01*
X645711Y1804159D02*X650317D01*
X645711Y1806718D02*X650317D01*
X645711Y1809277D02*X650317D01*
G54D86*X631700Y1653892D02*Y1652908D01*
X636818Y1653892D02*Y1652908D01*
X654808Y1669059D02*X655792D01*
X654808Y1663941D02*X655792D01*
X650041Y1652792D02*Y1651808D01*
X655159Y1652792D02*Y1651808D01*
X621200Y1786092D02*Y1785108D01*
X616082Y1786092D02*Y1785108D01*
X657677Y1777733D02*Y1776749D01*
X652559Y1777733D02*Y1776749D01*
X658577Y1784033D02*Y1783049D01*
X653459Y1784033D02*Y1783049D01*
X664508Y1798618D02*X665492D01*
X664508Y1793500D02*X665492D01*
X615308Y1802918D02*X616292D01*
X615308Y1797800D02*X616292D01*
X657708Y1793500D02*X658692D01*
X657708Y1788382D02*X658692D01*
X671408Y1798600D02*X672392D01*
X671408Y1803718D02*X672392D01*
X671190Y1793500D02*X672174D01*
X671190Y1788382D02*X672174D01*
X616000Y1792592D02*Y1791608D01*
X610882Y1792592D02*Y1791608D01*
G54D84*X269400Y1887300D02*X289400D01*
X311400D02*X331400D01*
X124600Y1909200D02*Y1889200D01*
Y1867200D02*Y1847200D01*
M02*
