M48
INCH
T65C0.150
T64C0.035
T63C0.020
T62C0.045
T61C0.023
T60C0.040
%
T63
X038320Y190420
X029960Y182880
X055940Y166050
X047230Y166640
X048530Y167870
X028950Y166430
X021670Y167800
X044660Y190400
X044720Y178230
X056630Y165340
X063680Y164880
X064630Y182100
X065550Y167420
X064240Y166510
X062320Y165390
X045350Y165750
X061730Y177840
X067650Y179600
X050690Y180540
X047220Y180520
X040740Y180950
X023270Y180520
X017670Y178120
X020250Y166650
X017830Y167330
X029960Y187400
T61
X065440Y173750
X018850Y174130
X018850Y176130
X017850Y175130
X021450Y174130
X020450Y175130
X021450Y176130
X038450Y174130
X038450Y176130
X037450Y175130
X035850Y174130
X035850Y176130
X034850Y175130
X044850Y175130
X064440Y174750
X061840Y174750
X065440Y175750
X048450Y174130
X048450Y176130
X047450Y175130
X045850Y174130
X045850Y176130
X062840Y173750
X062840Y175750
T64
X019650Y173710
X038160Y168440
X036940Y184000
X036650Y174050
X036670Y172030
X034910Y178220
X035190Y165710
X036230Y165070
X028950Y174130
X029310Y165060
X019650Y172260
X022400Y165060
X020020Y184420
X055940Y173750
X063690Y173600
X063700Y172360
X046660Y172520
X046660Y173810
X047110Y164730
X050250Y185940
X046930Y183450
X067430Y185900
T60
X047950Y171830
X047950Y169830
X062340Y169450
X062340Y170450
X062340Y171450
X064940Y169450
X045350Y171830
X042000Y195200
X035350Y171830
X037950Y171830
X045350Y170830
X035350Y170830
X043000Y195200
X020950Y170830
X013950Y159570
X018350Y169830
X018350Y170830
X043000Y192200
X014950Y159570
X042000Y192200
X037950Y170830
X045350Y169830
X035350Y169830
X037950Y169830
X041000Y192200
X020950Y169830
X008470Y187420
X040000Y192200
X008470Y188420
X029830Y192750
X018350Y171830
X064940Y171450
X064940Y170450
X028830Y192750
X040000Y195200
X041000Y195200
X020950Y171830
X047950Y170830
T62
X053480Y159570
X055480Y159570
X056480Y159570
X057480Y159570
X058480Y159570
X059480Y159570
X031850Y159570
X032850Y159570
X052480Y159570
X054480Y159570
X025850Y159570
X026850Y159570
X027850Y159570
X028850Y159570
X029850Y159570
X030850Y159570
T65
X008910Y156810
X008910Y192180
X070560Y156810
X070560Y192140
M30
